<svg version="1.1" xmlns="http://www.w3.org/2000/svg" xmlns:xlink="http://www.w3.org/1999/xlink" viewBox="0 0 37.699 37.613"> <g> <path fill="none" stroke="#000000" stroke-width="1.033" stroke-linecap="round" stroke-linejoin="round" stroke-miterlimit="10" d=" M23.117,26.468h-8.793c-4.418,0-8-3.582-8-8V16.39c0-4.418,3.582-8,8-8h8.793c4.418,0,8,3.582,8,8v2.078 C31.117,22.887,27.535,26.468,23.117,26.468z"/> <line fill="none" stroke="#000000" stroke-width="1.033" stroke-linecap="round" stroke-linejoin="round" stroke-miterlimit="10" x1="21.627" y1="30.086" x2="29.362" y2="30.084"/> <line fill="none" stroke="#000000" stroke-width="1.033" stroke-linecap="round" stroke-linejoin="round" stroke-miterlimit="10" x1="8.443" y1="30.084" x2="15.631" y2="30.084"/> <path fill="none" stroke="#000000" stroke-width="1.033" stroke-linecap="round" stroke-linejoin="round" stroke-miterlimit="10" d=" M12.78,8.39V7.357c0-1.141,0.925-2.066,2.066-2.066h7.748c1.141,0,2.066,0.925,2.066,2.066V8.39"/> <g> <path fill="none" stroke="#000000" stroke-width="1.033" stroke-linecap="round" stroke-linejoin="round" stroke-miterlimit="10" d=" M6.324,20.787H4.258c-0.571,0-1.033-0.462-1.033-1.033v-5.682c0-0.571,0.462-1.033,1.033-1.033h2.066"/> <path fill="none" stroke="#000000" stroke-width="1.033" stroke-linecap="round" stroke-linejoin="round" stroke-miterlimit="10" d=" M31.117,20.787h2.066c0.571,0,1.033-0.462,1.033-1.033v-5.682c0-0.571-0.463-1.033-1.033-1.033h-2.066"/> </g> <line fill="none" stroke="#000000" stroke-width="1.033" stroke-linecap="round" stroke-linejoin="round" stroke-miterlimit="10" x1="15.631" y1="30.084" x2="15.687" y2="26.985"/> <line fill="none" stroke="#000000" stroke-width="1.033" stroke-linecap="round" stroke-linejoin="round" stroke-miterlimit="10" x1="21.627" y1="26.985" x2="21.627" y2="30.086"/> <g> <circle fill="none" stroke="#000000" stroke-width="1.033" stroke-linecap="round" stroke-linejoin="round" stroke-miterlimit="10" cx="13.555" cy="16.654" r="3.099"/> <circle fill="none" stroke="#000000" stroke-width="1.033" stroke-linecap="round" stroke-linejoin="round" stroke-miterlimit="10" cx="23.886" cy="16.654" r="3.099"/> </g> <line fill="none" stroke="#000000" stroke-width="1.033" stroke-linecap="round" stroke-linejoin="round" stroke-miterlimit="10" x1="18.72" y1="5.291" x2="18.72" y2="2.708"/> <line fill="none" stroke="#000000" stroke-width="1.033" stroke-linecap="round" stroke-linejoin="round" stroke-miterlimit="10" x1="16.138" y1="23.369" x2="21.303" y2="23.369"/> <g> <line fill="none" stroke="#000000" stroke-width="1.033" stroke-linecap="round" stroke-linejoin="round" stroke-miterlimit="10" x1="6.324" y1="16.654" x2="10.456" y2="16.654"/> <line fill="none" stroke="#000000" stroke-width="1.033" stroke-linecap="round" stroke-linejoin="round" stroke-miterlimit="10" x1="26.985" y1="16.654" x2="31.117" y2="16.654"/> </g> <line fill="none" stroke="#000000" stroke-width="1.033" stroke-linecap="round" stroke-linejoin="round" stroke-miterlimit="10" x1="16.827" y1="2.536" x2="20.614" y2="2.536"/> <path fill="none" stroke="#000000" stroke-width="1.033" stroke-linecap="round" stroke-linejoin="round" stroke-miterlimit="10" d=" M21.627,30.086c-0.427,1.201-1.559,2.064-2.906,2.064c-1.284,0-2.619-0.954-3.089-2.066"/> <circle fill="none" stroke="#000000" stroke-width="1.033" stroke-linecap="round" stroke-linejoin="round" stroke-miterlimit="10" cx="5.635" cy="31.978" r="3.099"/> <circle fill="none" stroke="#000000" stroke-width="1.033" stroke-linecap="round" stroke-linejoin="round" stroke-miterlimit="10" cx="32.064" cy="31.978" r="3.099"/> <line fill="none" stroke="#000000" stroke-width="1.033" stroke-linecap="round" stroke-linejoin="round" stroke-miterlimit="10" x1="6.303" y1="30.6" x2="4.926" y2="33.183"/> <line fill="none" stroke="#000000" stroke-width="1.033" stroke-linecap="round" stroke-linejoin="round" stroke-miterlimit="10" x1="32.732" y1="30.6" x2="31.355" y2="33.183"/> </g> </svg>